<svg width="108" height="18" fill="none" xmlns="http://www.w3.org/2000/svg"><path fill-rule="evenodd" clip-rule="evenodd" d="M103.847 2.65853V17.4498h-2.113V2.65853h-3.7561V1.01506h9.6261v1.64347h-3.757zm-8.1347 8.69867c-.3679.4618-.8296.7905-1.3853.9861-.5556.1957-1.2169.2935-1.9839.2935-.36 0-.7669-.0235-1.2208-.0704-.4539-.047-.8296-.1018-1.127-.1644v5.0478h-2.113V1.24984c.5947-.17218 1.1934-.29348 1.7961-.363914.6026-.070435 1.256-.105653 1.9604-.105653.9391 0 1.7374.097827 2.3948.293477s1.1895.52044 1.5965.97435c.4069.45391.7043 1.05652.8922 1.80783.1878.7513.2817 1.6826.2817 2.79391 0 1.14261-.09 2.09739-.27 2.86435-.18.76691-.4539 1.38131-.8217 1.84301zm-1.1974-6.8204c-.1174-.56348-.3013-1.00957-.5518-1.33827-.2504-.32869-.5674-.55956-.9508-.6926-.3835-.13305-.8413-.19957-1.3735-.19957h-1.6435v8.68694h1.6435c.5322 0 .99-.0665 1.3735-.1995.3834-.1331.7004-.364.9508-.6927.2505-.32865.4344-.77474.5518-1.33822.1174-.56348.1761-1.26782.1761-2.11304 0-.84522-.0587-1.54957-.1761-2.11304zm-11.9152 8.687H77.904l-1.0565 4.226h-2.1131l3.9913-16.43474h3.0522l3.9913 16.43474h-2.113l-1.0565-4.226zm-2.3009-9.86092h-.0939l-1.9487 8.21742h3.9913l-1.9487-8.21742zM70.1562 5.24114h-.1174L66.6344 15.3368h-2.113L61.117 5.24114h-.1173l-.7044 12.20866h-2.113l.9391-16.43474h2.5826l3.827 11.26954h.0939l3.8269-11.26954h2.5826l.9392 16.43474h-2.1131l-.7043-12.20866zM54.3788 15.9238c-.4383.6417-.9665 1.0956-1.5848 1.3617s-1.3265.3991-2.1248.3991c-.7982 0-1.5065-.133-2.1248-.3991-.6182-.2661-1.1465-.72-1.5847-1.3617-.4383-.6418-.7709-1.5066-.9979-2.5944-.2269-1.0878-.3404-2.4535-.3404-4.09695 0-1.64348.1135-3.00913.3404-4.09696.227-1.08783.5596-1.95261.9979-2.59435.4382-.64174.9665-1.09565 1.5847-1.36174.6183-.266083 1.3266-.399127 2.1248-.399127.7983 0 1.5065.133044 2.1248.399127.6183.26609 1.1465.72 1.5848 1.36174.4382.64174.7709 1.50652.9978 2.59435.227 1.08783.3404 2.45348.3404 4.09696 0 1.64345-.1134 3.00915-.3404 4.09695-.2269 1.0878-.5596 1.9526-.9978 2.5944zM53.3575 5.75766c-.1644-.90782-.3796-1.62782-.6457-2.16-.2661-.53217-.5791-.9-.9391-1.10347-.36-.20348-.7278-.30522-1.1035-.30522-.3756 0-.7435.10174-1.1035.30522-.36.20347-.673.5713-.9391 1.10347-.2661.53218-.4813 1.25218-.6456 2.16-.1644.90783-.2466 2.06609-.2466 3.47479 0 1.40865.0822 2.56695.2466 3.47475.1643.9079.3795 1.6279.6456 2.16.2661.5322.5791.9.9391 1.1035.36.2035.7279.3052 1.1035.3052.3757 0 .7435-.1017 1.1035-.3052.36-.2035.673-.5713.9391-1.1035.2661-.5321.4813-1.2521.6457-2.16.1643-.9078.2465-2.0661.2465-3.47475 0-1.4087-.0822-2.56696-.2465-3.47479zM40.691 9.9368h-4.9305v7.513h-2.113V1.01506h2.113v7.27826h4.9305V1.01506h2.113V17.4498h-2.113v-7.513zm-11.1514 7.513l-2.9348-7.0434-2.9348 7.0434h-2.113l3.5217-8.45214-3.1696-7.9826h2.1131l2.5826 6.57391 2.5826-6.57391h2.113l-3.1695 7.9826 3.5217 8.45214h-2.113zM12.283 1.01506h7.9827v1.64347h-5.8696v5.4h5.1652v1.64348h-5.1652v6.10439h5.8696v1.6434H12.283V1.01506zM6.64826 17.4498H4.53522V2.65853H.778694V1.01506H10.4048v1.64347H6.64826V17.4498z" fill="#fff"/></svg>